# xmcd
#
# Track frame offsets:
#	150
#	22585
#	43670
#	69285
#	91445
#	110570
#	125045
#	149870
#	171985
#	218225
#
# Disc length: 3498 seconds
#
# Revision: 2
# Processed by: cddbd v1.5.1PL2 Copyright (c) Steve Scherf et al.
# Submitted via: EasyCDDAExtractor 8.0.2.1
#
DISCID=930da80a
DTITLE=Dio - Pine Knob Music Amphitheatre Clarkston 30-08-85 Disc 1
DYEAR=1985
DGENRE=Hard Rock
TTITLE0=King Of Rock and Roll
TTITLE1=Like The Beat Of A Heart
TTITLE2=Don't Talk To Strangers
TTITLE3=Hungry For Heaven
TTITLE4=The Last In Line
TTITLE5=Holy Diver
TTITLE6=Drum Solo
TTITLE7=Heaven and Hell
TTITLE8=Guitar Solo
TTITLE9=Sacred Heart
EXTD=
EXTT0=
EXTT1=
EXTT2=
EXTT3=
EXTT4=
EXTT5=
EXTT6=
EXTT7=
EXTT8=
EXTT9=
PLAYORDER=
